<svg id="Layer_1" data-name="Layer 1" xmlns="http://www.w3.org/2000/svg" viewBox="0 0 92.35 73.29"><defs><style>.cls-1{fill:#00529b;}.cls-2{fill:#03a3da;}.cls-3{fill:#70ab43;}.cls-4{fill:#e66725;}.cls-5{fill:#c71d65;}.cls-6{fill:#e05e87;}.cls-7{fill:#8d4a97;}</style></defs><path class="cls-1" d="M30.21,38.8a.82.82,0,0,1,.09.39.3.3,0,0,1-.11.24.75.75,0,0,1-.32.1,4.28,4.28,0,0,1-.56,0,4,4,0,0,1-.54,0,1.44,1.44,0,0,1-.31-.07.39.39,0,0,1-.17-.13,1.6,1.6,0,0,1-.11-.19l-2-5.56H17L15.12,39.1a.63.63,0,0,1-.1.2.42.42,0,0,1-.18.13,1,1,0,0,1-.31.09,3.29,3.29,0,0,1-.51,0,4.18,4.18,0,0,1-.56,0,.75.75,0,0,1-.33-.11.27.27,0,0,1-.11-.23.92.92,0,0,1,.08-.38L20.4,19a.48.48,0,0,1,.15-.22.55.55,0,0,1,.25-.14,2.45,2.45,0,0,1,.37-.07,3.7,3.7,0,0,1,.49,0,4,4,0,0,1,.51,0l.37.07a.57.57,0,0,1,.24.14.69.69,0,0,1,.14.22ZM21.56,20.72h0L17.62,31.94h8Z" transform="translate(-0.92 -0.61)"/><path class="cls-1" d="M36,39.14a.29.29,0,0,1-.21.3,1.3,1.3,0,0,1-.29.08,3.14,3.14,0,0,1-.48,0,3.18,3.18,0,0,1-.47,0,1.41,1.41,0,0,1-.3-.08.27.27,0,0,1-.16-.13.34.34,0,0,1,0-.17V18.93a.27.27,0,0,1,.06-.17.29.29,0,0,1,.17-.13,1.73,1.73,0,0,1,.31-.08,2.65,2.65,0,0,1,.44,0,3,3,0,0,1,.48,0,1.3,1.3,0,0,1,.29.08.29.29,0,0,1,.21.3Z" transform="translate(-0.92 -0.61)"/><path class="cls-1" d="M55.7,36.62a3.25,3.25,0,0,1,0,.33,1.64,1.64,0,0,1,0,.25,2.2,2.2,0,0,1-.09.21,1.31,1.31,0,0,1-.21.25,6.6,6.6,0,0,1-.67.5,8.52,8.52,0,0,1-1.3.69,11.41,11.41,0,0,1-1.79.58,9.8,9.8,0,0,1-2.24.24A8.87,8.87,0,0,1,45.78,39a7.19,7.19,0,0,1-2.72-2,9.12,9.12,0,0,1-1.72-3.26,14.55,14.55,0,0,1-.61-4.41,15,15,0,0,1,.65-4.57,10.09,10.09,0,0,1,1.81-3.43A7.85,7.85,0,0,1,46,19.15a8.59,8.59,0,0,1,3.62-.75,9,9,0,0,1,1.81.18A11.14,11.14,0,0,1,53,19a7.13,7.13,0,0,1,1.33.63,5.6,5.6,0,0,1,.81.57,2.24,2.24,0,0,1,.27.32.67.67,0,0,1,.09.21,1.78,1.78,0,0,1,.05.28c0,.1,0,.21,0,.34a2.49,2.49,0,0,1,0,.4,1.11,1.11,0,0,1-.08.29.54.54,0,0,1-.14.18.26.26,0,0,1-.19.07,1.23,1.23,0,0,1-.64-.33,9.36,9.36,0,0,0-1.08-.74,9,9,0,0,0-1.63-.73,7.23,7.23,0,0,0-2.31-.33,6.2,6.2,0,0,0-2.69.59,5.88,5.88,0,0,0-2.1,1.73,8.62,8.62,0,0,0-1.37,2.82,13.63,13.63,0,0,0-.49,3.85,13.71,13.71,0,0,0,.45,3.69,7.78,7.78,0,0,0,1.31,2.71,5.59,5.59,0,0,0,2.11,1.69,6.78,6.78,0,0,0,2.85.58,7.12,7.12,0,0,0,2.28-.33,8.94,8.94,0,0,0,1.66-.74,9.56,9.56,0,0,0,1.14-.73,1.34,1.34,0,0,1,.69-.33.29.29,0,0,1,.16,0,.36.36,0,0,1,.1.15,1.26,1.26,0,0,1,.07.28c0,.12,0,.26,0,.43" transform="translate(-0.92 -0.61)"/><path class="cls-1" d="M74.52,38.8a1.17,1.17,0,0,1,.09.39.35.35,0,0,1-.12.24.71.71,0,0,1-.32.1,4.17,4.17,0,0,1-.56,0,3.7,3.7,0,0,1-.53,0,1.56,1.56,0,0,1-.32-.07.45.45,0,0,1-.17-.13.85.85,0,0,1-.1-.19l-2-5.56H61.34L59.42,39.1a.47.47,0,0,1-.1.2.45.45,0,0,1-.17.13,1,1,0,0,1-.32.09,3.26,3.26,0,0,1-.5,0,4.22,4.22,0,0,1-.57,0,.75.75,0,0,1-.33-.11.27.27,0,0,1-.11-.23.81.81,0,0,1,.09-.38L64.71,19a.55.55,0,0,1,.14-.22.68.68,0,0,1,.25-.14,2.73,2.73,0,0,1,.37-.07,3.78,3.78,0,0,1,.49,0,3.94,3.94,0,0,1,.51,0,2.73,2.73,0,0,1,.37.07.57.57,0,0,1,.24.14.55.55,0,0,1,.14.22ZM65.87,20.72h0L61.92,31.94h8Z" transform="translate(-0.92 -0.61)"/><path class="cls-1" d="M93.27,38.51a1.14,1.14,0,0,1-.09.48,1,1,0,0,1-.22.32.84.84,0,0,1-.31.16.93.93,0,0,1-.32.05h-.4a1.87,1.87,0,0,1-.59-.08,1.52,1.52,0,0,1-.51-.28,2.66,2.66,0,0,1-.5-.54,8.39,8.39,0,0,1-.56-.87l-7.34-13q-.56-.94-1.11-1.95c-.37-.67-.72-1.33-1-2h0c0,.78,0,1.59,0,2.41V39.14a.34.34,0,0,1,0,.17.3.3,0,0,1-.16.13,1.6,1.6,0,0,1-.3.08,3,3,0,0,1-.47,0,3.09,3.09,0,0,1-.47,0,1.53,1.53,0,0,1-.31-.08.3.3,0,0,1-.16-.13.34.34,0,0,1,0-.17V19.63a.9.9,0,0,1,.31-.8,1,1,0,0,1,.6-.22H80a2.31,2.31,0,0,1,.64.07,1.26,1.26,0,0,1,.47.21,2,2,0,0,1,.41.44c.14.19.28.43.45.72L87.6,30l1,1.79.92,1.7.9,1.63.87,1.63h0c0-.9,0-1.84,0-2.82V19a.35.35,0,0,1,0-.18.45.45,0,0,1,.16-.14,1.6,1.6,0,0,1,.3-.08l.48,0,.45,0a1.26,1.26,0,0,1,.3.08.49.49,0,0,1,.17.14.28.28,0,0,1,.06.18Z" transform="translate(-0.92 -0.61)"/><path class="cls-1" d="M16.71,48.83a.31.31,0,0,1,0,.08.05.05,0,0,1,0,0l-.06,0h-.28s0,0,0,0l0,0-.39-1.08H14.16l-.37,1.07s0,0,0,0l0,0h-.27l-.06,0a.05.05,0,0,1,0,0,.13.13,0,0,1,0-.08L14.82,45a.05.05,0,0,1,0,0l.05,0h.34l0,0a.05.05,0,0,1,0,0ZM15,45.34h0l-.76,2.17h1.54Z" transform="translate(-0.92 -0.61)"/><path class="cls-1" d="M19,46.22s0,.06,0,.08a.07.07,0,0,1,0,.05.05.05,0,0,1,0,0h0l-.06,0-.09,0-.11,0h-.13a.32.32,0,0,0-.16,0,.55.55,0,0,0-.17.11,1,1,0,0,0-.19.21,3.47,3.47,0,0,0-.22.32V48.9a0,0,0,0,1,0,0s0,0,0,0h-.29l0,0a0,0,0,0,1,0,0V46.08a.06.06,0,0,1,0,0l0,0,0,0h.18l.05,0,0,0v.48c.09-.11.16-.21.23-.28a1.37,1.37,0,0,1,.19-.17.6.6,0,0,1,.19-.08.57.57,0,0,1,.18,0h.09l.12,0,.11,0,.06,0,0,0a0,0,0,0,0,0,0v0A.15.15,0,0,1,19,46.22Z" transform="translate(-0.92 -0.61)"/><path class="cls-1" d="M21.89,46a.11.11,0,0,1,.09,0,.15.15,0,0,1,0,.1v2.78l0,0h-.29s0,0,0,0a0,0,0,0,1,0,0V46.33H20.08V48a1,1,0,0,0,.09.49.35.35,0,0,0,.34.17l.13,0,.11,0,.08,0h.08l0,0,0,0v.07a.37.37,0,0,1,0,.11l0,.06-.07,0-.11,0-.12,0h-.13a.88.88,0,0,1-.35-.06.53.53,0,0,1-.24-.17.66.66,0,0,1-.14-.29,1.62,1.62,0,0,1,0-.41V46.33h-.42a.1.1,0,0,1-.07,0,.22.22,0,0,1,0-.12V46.1l0-.05,0,0h.46v-.69a0,0,0,0,1,0,0l0,0H20l0,0a0,0,0,0,1,0,0V46Zm.17-.88c0,.1,0,.17,0,.2s-.1.05-.19.05-.16,0-.19-.05-.05-.1-.05-.2a.3.3,0,0,1,.05-.2.26.26,0,0,1,.19,0c.1,0,.16,0,.19,0S22.06,45,22.06,45.13Z" transform="translate(-0.92 -0.61)"/><path class="cls-1" d="M25.3,48.9a0,0,0,0,1,0,0l0,0H25s0,0,0,0a0,0,0,0,1,0,0V46.33H23.55v2.6l0,0h-.3l0,0v-2.6h-.43a.07.07,0,0,1-.06,0,.21.21,0,0,1,0-.12.17.17,0,0,1,0-.07s0,0,0-.05l0,0h.47v-.33a1.88,1.88,0,0,1,.05-.5.85.85,0,0,1,.16-.33.61.61,0,0,1,.26-.19A1,1,0,0,1,24,44.6h.25l.1,0,0,0s0,0,0,0,0,0,0,0a.11.11,0,0,0,0,0v.06s0,.08,0,.11a.05.05,0,0,1-.05,0h-.06l-.07,0-.11,0H24a.35.35,0,0,0-.34.18,1.2,1.2,0,0,0-.1.58V46h1.63a.1.1,0,0,1,.09,0,.12.12,0,0,1,0,.09Zm.06-3.77a.37.37,0,0,1,0,.12.19.19,0,0,1,0,.08.15.15,0,0,1-.08,0H25a.14.14,0,0,1-.12-.12s0-.07,0-.12,0-.09,0-.12a.14.14,0,0,1,.12-.12h.23a.15.15,0,0,1,.08,0,.19.19,0,0,1,0,.08A.37.37,0,0,1,25.36,45.13Z" transform="translate(-0.92 -0.61)"/><path class="cls-1" d="M28.31,48.48v.07a.09.09,0,0,0,0,.05s0,0,0,0l-.05,0a.61.61,0,0,1-.14.11,1,1,0,0,1-.21.11l-.26.07a1.27,1.27,0,0,1-.28,0,1.21,1.21,0,0,1-.52-.1.9.9,0,0,1-.38-.29,1.22,1.22,0,0,1-.23-.47,2.43,2.43,0,0,1-.08-.64,2.07,2.07,0,0,1,.1-.7,1.23,1.23,0,0,1,.27-.48,1,1,0,0,1,.4-.28,1.33,1.33,0,0,1,.49-.09,1.24,1.24,0,0,1,.27,0l.23.07a.85.85,0,0,1,.19.1l.13.09.05.06s0,0,0,0a.09.09,0,0,1,0,0,.17.17,0,0,1,0,.07.21.21,0,0,1,0,.13s0,0-.06,0-.06,0-.11-.06a.74.74,0,0,0-.16-.12,1.36,1.36,0,0,0-.24-.13,1.11,1.11,0,0,0-.34-.05.7.7,0,0,0-.62.31,1.54,1.54,0,0,0-.22.9,2,2,0,0,0,.06.52,1,1,0,0,0,.17.37.64.64,0,0,0,.27.22.78.78,0,0,0,.35.07.81.81,0,0,0,.33-.06,1.17,1.17,0,0,0,.25-.13l.18-.13c.05,0,.08-.06.1-.06h0s0,0,0,0a.07.07,0,0,1,0,0A.22.22,0,0,1,28.31,48.48Z" transform="translate(-0.92 -0.61)"/><path class="cls-1" d="M29.47,45.13c0,.1,0,.17,0,.2a.26.26,0,0,1-.19.05c-.09,0-.16,0-.19-.05s-.05-.1-.05-.2a.3.3,0,0,1,.05-.2.26.26,0,0,1,.19,0c.09,0,.16,0,.19,0S29.47,45,29.47,45.13Zm0,3.77v0l0,0h-.3l0,0V46l0,0,.06,0h.18l.06,0,0,0V48.9Z" transform="translate(-0.92 -0.61)"/><path class="cls-1" d="M32.43,48.9s0,0,0,.05l0,0h-.18l-.06,0s0,0,0-.05v-.32a1.38,1.38,0,0,1-.42.32,1,1,0,0,1-.47.11,1.62,1.62,0,0,1-.4,0,.87.87,0,0,1-.3-.17.83.83,0,0,1-.19-.26.93.93,0,0,1-.06-.34.88.88,0,0,1,.09-.41,1,1,0,0,1,.28-.29,1.54,1.54,0,0,1,.43-.17,2.32,2.32,0,0,1,.55-.06h.45V47a1,1,0,0,0,0-.32.46.46,0,0,0-.12-.23.55.55,0,0,0-.22-.14,1,1,0,0,0-.33,0,1.14,1.14,0,0,0-.33,0,1.28,1.28,0,0,0-.26.1,1.09,1.09,0,0,0-.19.1.22.22,0,0,1-.1,0h0s0,0,0,0a.05.05,0,0,1,0,0v-.06a.34.34,0,0,1,0-.11.2.2,0,0,1,0-.08l.14-.09.23-.1.28-.07a1.53,1.53,0,0,1,.3,0,1.75,1.75,0,0,1,.49.07.92.92,0,0,1,.32.2.88.88,0,0,1,.18.33,1.81,1.81,0,0,1,0,.43Zm-.37-1.33h-.52a1.51,1.51,0,0,0-.39,0,.79.79,0,0,0-.28.12.46.46,0,0,0-.16.18.54.54,0,0,0-.06.25.53.53,0,0,0,.15.39.61.61,0,0,0,.44.14.74.74,0,0,0,.41-.11,1.56,1.56,0,0,0,.41-.35Z" transform="translate(-0.92 -0.61)"/><path class="cls-1" d="M33.83,48.9v0l0,0h-.3l0,0V44.66l0,0,.06,0h.18l.06,0,0,0s0,0,0,0Z" transform="translate(-0.92 -0.61)"/><path class="cls-1" d="M36.76,48.9v0l0,0h-.29l0,0V45s0,0,0,0,0,0,0,0h.29l0,0s0,0,0,0Z" transform="translate(-0.92 -0.61)"/><path class="cls-1" d="M40.14,48.9a0,0,0,0,1,0,0l0,0h-.29l0,0V47.22a1.66,1.66,0,0,0,0-.42.79.79,0,0,0-.12-.28.46.46,0,0,0-.21-.18.65.65,0,0,0-.29-.06.75.75,0,0,0-.43.15,2.37,2.37,0,0,0-.45.45v2l0,0h-.3l0,0V46l0,0L38,46h.17l.05,0,0,0a.06.06,0,0,1,0,0v.4a1.89,1.89,0,0,1,.48-.4,1,1,0,0,1,.93,0,.73.73,0,0,1,.3.25,1,1,0,0,1,.17.37,1.91,1.91,0,0,1,0,.51Z" transform="translate(-0.92 -0.61)"/><path class="cls-1" d="M42.47,48.73a.37.37,0,0,1,0,.11l0,.06-.07,0-.11,0-.12,0H42a.88.88,0,0,1-.35-.06.53.53,0,0,1-.24-.17.66.66,0,0,1-.14-.29,1.62,1.62,0,0,1,0-.41V46.33h-.42a.1.1,0,0,1-.07,0,.22.22,0,0,1,0-.12V46.1l0-.05,0,0h.46v-.69a0,0,0,0,1,0,0l0,0h.29l0,0a0,0,0,0,1,0,0V46h.82l0,0,0,.05v.07a.37.37,0,0,1,0,.12.1.1,0,0,1-.07,0H41.6V48a1,1,0,0,0,.09.49.35.35,0,0,0,.34.17l.13,0,.11,0,.08,0h.08l0,0,0,0Z" transform="translate(-0.92 -0.61)"/><path class="cls-1" d="M45.45,47.34a.18.18,0,0,1-.06.16.19.19,0,0,1-.11,0H43.36a1.74,1.74,0,0,0,0,.47.9.9,0,0,0,.17.37.86.86,0,0,0,.3.23,1.32,1.32,0,0,0,.47.08,1.25,1.25,0,0,0,.35,0,1.31,1.31,0,0,0,.27-.07l.19-.08.1,0h0s0,0,0,0,0,0,0,.05v.12s0,0,0,0v0l0,0-.09,0a.93.93,0,0,1-.22.08,1.67,1.67,0,0,1-.3.07,2.13,2.13,0,0,1-.37,0,1.5,1.5,0,0,1-.58-.1,1,1,0,0,1-.42-.29,1,1,0,0,1-.26-.47,2.19,2.19,0,0,1-.09-.66,2.11,2.11,0,0,1,.09-.64,1.38,1.38,0,0,1,.26-.48,1.21,1.21,0,0,1,.41-.3,1.37,1.37,0,0,1,.54-.11,1.27,1.27,0,0,1,.54.11,1.07,1.07,0,0,1,.37.28,1,1,0,0,1,.21.42,1.63,1.63,0,0,1,.07.5Zm-.38-.11a1,1,0,0,0-.21-.7.79.79,0,0,0-.62-.25.92.92,0,0,0-.38.08.9.9,0,0,0-.27.21,1.11,1.11,0,0,0-.17.3,1.13,1.13,0,0,0-.06.36Z" transform="translate(-0.92 -0.61)"/><path class="cls-1" d="M46.69,48.9v0l0,0h-.3l0,0V44.66l0,0,.06,0h.18l.06,0,0,0s0,0,0,0Z" transform="translate(-0.92 -0.61)"/><path class="cls-1" d="M48.1,48.9v0l0,0h-.3l0,0V44.7s0,0,0,0l0,0,.06,0H48l.06,0,0,0s0,0,0,0Z" transform="translate(-0.92 -0.61)"/><path class="cls-1" d="M49.56,45.13a.3.3,0,0,1-.05.2.27.27,0,0,1-.2.05c-.09,0-.15,0-.18-.05a.36.36,0,0,1,0-.4s.1,0,.19,0a.26.26,0,0,1,.19,0A.3.3,0,0,1,49.56,45.13ZM49.5,48.9a0,0,0,0,1,0,0l0,0h-.29l0,0V46l0,0,.06,0h.18l.05,0,0,0a.06.06,0,0,1,0,0Z" transform="translate(-0.92 -0.61)"/><path class="cls-1" d="M52.8,46.17a.17.17,0,0,1,0,.12.08.08,0,0,1-.07,0h-.45a.77.77,0,0,1,.19.29,1.14,1.14,0,0,1,.05.33,1.18,1.18,0,0,1-.08.43.77.77,0,0,1-.22.31.79.79,0,0,1-.33.2,1.18,1.18,0,0,1-.43.07,1.49,1.49,0,0,1-.36-.05.9.9,0,0,1-.26-.13.49.49,0,0,0-.11.14.53.53,0,0,0,0,.19.24.24,0,0,0,.12.2.5.5,0,0,0,.29.08l.76,0a2.2,2.2,0,0,1,.37.06.71.71,0,0,1,.29.14.63.63,0,0,1,.21.22.66.66,0,0,1,.07.32.72.72,0,0,1-.08.35.76.76,0,0,1-.23.3,1.22,1.22,0,0,1-.41.21,2.13,2.13,0,0,1-.6.08,2.29,2.29,0,0,1-.56-.06,1.21,1.21,0,0,1-.38-.16.65.65,0,0,1-.28-.53,1.25,1.25,0,0,1,0-.21,1,1,0,0,1,.08-.18.7.7,0,0,1,.13-.17c0-.06.11-.11.17-.17a.63.63,0,0,1-.23-.19.45.45,0,0,1-.07-.25.74.74,0,0,1,.07-.34,1.27,1.27,0,0,1,.18-.27.89.89,0,0,1-.14-.25,1.16,1.16,0,0,1,0-.34,1.18,1.18,0,0,1,.08-.43.87.87,0,0,1,.22-.32A1.08,1.08,0,0,1,51,46a1.42,1.42,0,0,1,.42-.07l.23,0,.2,0h.83a.12.12,0,0,1,.08,0A.37.37,0,0,1,52.8,46.17Zm-.4,3a.37.37,0,0,0-.17-.32.92.92,0,0,0-.44-.12l-.82,0a1.06,1.06,0,0,0-.19.16l-.11.15a.47.47,0,0,0-.06.15.61.61,0,0,0,0,.14.37.37,0,0,0,.23.35,1.4,1.4,0,0,0,.64.12,1.33,1.33,0,0,0,.44-.06,1,1,0,0,0,.29-.13.53.53,0,0,0,.15-.19A.64.64,0,0,0,52.4,49.18ZM52.1,47a.66.66,0,0,0-.17-.5.68.68,0,0,0-.5-.18.65.65,0,0,0-.29,0,.8.8,0,0,0-.21.15.84.84,0,0,0-.12.23.77.77,0,0,0,0,.27.66.66,0,0,0,.18.49.64.64,0,0,0,.49.18.73.73,0,0,0,.3-.06.62.62,0,0,0,.2-.15.48.48,0,0,0,.12-.22A.75.75,0,0,0,52.1,47Z" transform="translate(-0.92 -0.61)"/><path class="cls-1" d="M55.83,47.34a.18.18,0,0,1-.06.16.19.19,0,0,1-.12,0H53.73a2.26,2.26,0,0,0,.05.47,1.26,1.26,0,0,0,.17.37.9.9,0,0,0,.31.23,1.32,1.32,0,0,0,.47.08,1.25,1.25,0,0,0,.35,0,1.31,1.31,0,0,0,.27-.07l.19-.08.1,0h0s0,0,0,0,0,0,0,.05v.12s0,0,0,0v0l0,0a.28.28,0,0,1-.1,0,.71.71,0,0,1-.21.08l-.3.07a2.22,2.22,0,0,1-.37,0,1.5,1.5,0,0,1-.58-.1,1.06,1.06,0,0,1-.43-.29,1.25,1.25,0,0,1-.26-.47,2.19,2.19,0,0,1-.09-.66,2.1,2.1,0,0,1,.1-.64,1.38,1.38,0,0,1,.26-.48,1.12,1.12,0,0,1,.41-.3,1.33,1.33,0,0,1,.54-.11,1.27,1.27,0,0,1,.54.11,1.17,1.17,0,0,1,.37.28,1,1,0,0,1,.21.42,1.63,1.63,0,0,1,.07.5Zm-.38-.11a1.08,1.08,0,0,0-.21-.7.8.8,0,0,0-.63-.25.87.87,0,0,0-.37.08.9.9,0,0,0-.27.21,1.11,1.11,0,0,0-.17.3,1.53,1.53,0,0,0-.07.36Z" transform="translate(-0.92 -0.61)"/><path class="cls-1" d="M59,48.9a0,0,0,0,1,0,0s0,0,0,0h-.29l0,0a0,0,0,0,1,0,0V47.22a1.66,1.66,0,0,0,0-.42,1,1,0,0,0-.12-.28.52.52,0,0,0-.21-.18.65.65,0,0,0-.29-.06.72.72,0,0,0-.43.15,1.91,1.91,0,0,0-.45.45v2l0,0h-.3l0,0V46l0,0,.06,0H57l0,0,0,0v.44a2,2,0,0,1,.47-.4A1,1,0,0,1,58,46a.92.92,0,0,1,.46.1.76.76,0,0,1,.31.25,1,1,0,0,1,.17.37,2.44,2.44,0,0,1,0,.51Z" transform="translate(-0.92 -0.61)"/><path class="cls-1" d="M62,48.48a.17.17,0,0,1,0,.07v.05s0,0,0,0l-.05,0-.14.11a1,1,0,0,1-.21.11l-.26.07A1.27,1.27,0,0,1,61,49a1.21,1.21,0,0,1-.52-.1.9.9,0,0,1-.38-.29,1.22,1.22,0,0,1-.23-.47,2.43,2.43,0,0,1-.08-.64,2.07,2.07,0,0,1,.1-.7,1.12,1.12,0,0,1,.27-.48,1,1,0,0,1,.4-.28,1.3,1.3,0,0,1,.49-.09,1.24,1.24,0,0,1,.27,0l.23.07a.85.85,0,0,1,.19.1l.13.09,0,.06s0,0,0,0a.09.09,0,0,1,0,0s0,.05,0,.07a.21.21,0,0,1,0,.13s0,0-.06,0-.06,0-.11-.06a.74.74,0,0,0-.16-.12,1.36,1.36,0,0,0-.24-.13,1.16,1.16,0,0,0-.34-.05.7.7,0,0,0-.62.31,1.54,1.54,0,0,0-.22.9,2,2,0,0,0,.06.52,1,1,0,0,0,.17.37.68.68,0,0,0,.26.22.86.86,0,0,0,.36.07.81.81,0,0,0,.33-.06,1.17,1.17,0,0,0,.25-.13l.18-.13c.05,0,.08-.06.1-.06h0l0,0a.07.07,0,0,1,0,0A.22.22,0,0,1,62,48.48Z" transform="translate(-0.92 -0.61)"/><path class="cls-1" d="M65,47.34a.18.18,0,0,1-.06.16.17.17,0,0,1-.11,0H62.89a1.74,1.74,0,0,0,0,.47.9.9,0,0,0,.17.37.81.81,0,0,0,.31.23,1.22,1.22,0,0,0,.46.08,1.25,1.25,0,0,0,.35,0,1.31,1.31,0,0,0,.27-.07l.19-.08.11,0h0s0,0,0,0a.08.08,0,0,1,0,.05v.12a.08.08,0,0,1,0,0v0l0,0-.09,0a.93.93,0,0,1-.22.08,1.67,1.67,0,0,1-.3.07,2.13,2.13,0,0,1-.37,0,1.5,1.5,0,0,1-.58-.1,1,1,0,0,1-.42-.29,1.13,1.13,0,0,1-.26-.47,2.19,2.19,0,0,1-.09-.66,2.11,2.11,0,0,1,.09-.64,1.38,1.38,0,0,1,.26-.48,1.15,1.15,0,0,1,.42-.3,1.32,1.32,0,0,1,.53-.11,1.27,1.27,0,0,1,.54.11,1.07,1.07,0,0,1,.37.28,1.2,1.2,0,0,1,.22.42,2,2,0,0,1,.06.5Zm-.38-.11a1,1,0,0,0-.21-.7.79.79,0,0,0-.62-.25.84.84,0,0,0-.37.08.83.83,0,0,0-.28.21,1.11,1.11,0,0,0-.17.3,1.51,1.51,0,0,0-.06.36Z" transform="translate(-0.92 -0.61)"/><path class="cls-1" d="M69.25,48.9a.06.06,0,0,1,0,.05l0,0H69l-.06,0s0,0,0-.05v-.32a1.18,1.18,0,0,1-.42.32A1,1,0,0,1,68,49a1.62,1.62,0,0,1-.4,0,.87.87,0,0,1-.3-.17.68.68,0,0,1-.18-.26.77.77,0,0,1-.07-.34.78.78,0,0,1,.1-.41.82.82,0,0,1,.27-.29,1.54,1.54,0,0,1,.43-.17,2.32,2.32,0,0,1,.55-.06h.45V47a1,1,0,0,0,0-.32.46.46,0,0,0-.12-.23.49.49,0,0,0-.22-.14.93.93,0,0,0-.32,0,1.16,1.16,0,0,0-.34,0,1.28,1.28,0,0,0-.26.1,1.09,1.09,0,0,0-.19.1.19.19,0,0,1-.1,0h0s0,0,0,0,0,0,0,0v-.06a.34.34,0,0,1,0-.11.15.15,0,0,1,0-.08l.14-.09.22-.1.28-.07a1.53,1.53,0,0,1,.3,0,1.7,1.7,0,0,1,.49.07.92.92,0,0,1,.32.2.76.76,0,0,1,.18.33,1.81,1.81,0,0,1,0,.43Zm-.37-1.33h-.51a1.51,1.51,0,0,0-.39,0,.77.77,0,0,0-.29.12.46.46,0,0,0-.16.18.54.54,0,0,0-.06.25.5.5,0,0,0,.16.39.59.59,0,0,0,.43.14.72.72,0,0,0,.41-.11,1.56,1.56,0,0,0,.41-.35Z" transform="translate(-0.92 -0.61)"/><path class="cls-1" d="M72.57,48.9v0l0,0h-.3l0,0V47.22a1.61,1.61,0,0,0,0-.42.65.65,0,0,0-.12-.28.49.49,0,0,0-.2-.18.73.73,0,0,0-.3-.06.77.77,0,0,0-.43.15,2.37,2.37,0,0,0-.45.45v2a0,0,0,0,1,0,0l0,0h-.29s0,0,0,0a0,0,0,0,1,0,0V46.08a.06.06,0,0,1,0,0l0,0,.05,0h.17l.06,0,0,0a.06.06,0,0,1,0,0v.4a1.89,1.89,0,0,1,.48-.4,1,1,0,0,1,.46-.12,1,1,0,0,1,.47.1.76.76,0,0,1,.31.25,1.12,1.12,0,0,1,.16.37,1.88,1.88,0,0,1,.06.51Z" transform="translate(-0.92 -0.61)"/><path class="cls-1" d="M75.87,48.9v0l0,0h-.26s0,0,0,0l0,0v-.41a1.79,1.79,0,0,1-.46.38,1,1,0,0,1-.52.14,1,1,0,0,1-.52-.12.83.83,0,0,1-.35-.32,1.34,1.34,0,0,1-.2-.47,2.72,2.72,0,0,1-.06-.58,2.64,2.64,0,0,1,.07-.65,1.49,1.49,0,0,1,.24-.49,1.12,1.12,0,0,1,.37-.31,1.21,1.21,0,0,1,.52-.11.94.94,0,0,1,.47.12,1.52,1.52,0,0,1,.42.33V44.68l0,0,.06,0h.18l.06,0,0,0V48.9Zm-.37-2a2.51,2.51,0,0,0-.45-.43.81.81,0,0,0-.46-.15.69.69,0,0,0-.36.1.72.72,0,0,0-.25.27,1.24,1.24,0,0,0-.14.38,2.18,2.18,0,0,0,0,.43,3.42,3.42,0,0,0,0,.46,1.37,1.37,0,0,0,.13.39.73.73,0,0,0,.24.28.62.62,0,0,0,.37.1.78.78,0,0,0,.22,0,.84.84,0,0,0,.22-.1l.23-.18a2.62,2.62,0,0,0,.26-.29Z" transform="translate(-0.92 -0.61)"/><path class="cls-1" d="M80.62,48.9v0l0,0h-.27s0,0,0,0a0,0,0,0,1,0,0v-.41a2,2,0,0,1-.46.38,1,1,0,0,1-.53.14,1.08,1.08,0,0,1-.52-.12.89.89,0,0,1-.35-.32,1.33,1.33,0,0,1-.19-.47,2.2,2.2,0,0,1-.07-.58,2.63,2.63,0,0,1,.08-.65,1.48,1.48,0,0,1,.23-.49,1.15,1.15,0,0,1,.38-.31,1.21,1.21,0,0,1,.52-.11,1,1,0,0,1,.47.12,1.35,1.35,0,0,1,.41.33V44.68l0,0,.06,0h.18l0,0s0,0,0,0a0,0,0,0,1,0,0Zm-.37-2a2,2,0,0,0-.45-.43.76.76,0,0,0-.45-.15.73.73,0,0,0-.37.1.93.93,0,0,0-.25.27,1.57,1.57,0,0,0-.14.38,2.15,2.15,0,0,0,0,.43,2.32,2.32,0,0,0,0,.46,1.12,1.12,0,0,0,.12.39.73.73,0,0,0,.24.28.65.65,0,0,0,.38.1.83.83,0,0,0,.22,0,.67.67,0,0,0,.21-.1l.24-.18a2.63,2.63,0,0,0,.25-.29Z" transform="translate(-0.92 -0.61)"/><path class="cls-1" d="M82.09,45.13a.3.3,0,0,1,0,.2.27.27,0,0,1-.2.05c-.09,0-.15,0-.18-.05a.36.36,0,0,1,0-.4s.1,0,.19,0a.26.26,0,0,1,.19,0A.3.3,0,0,1,82.09,45.13ZM82,48.9v0l0,0h-.3l0,0V46l0,0,.06,0h.18L82,46l0,0V48.9Z" transform="translate(-0.92 -0.61)"/><path class="cls-1" d="M85.33,46.17a.17.17,0,0,1,0,.12.08.08,0,0,1-.07,0h-.45a.77.77,0,0,1,.19.29A1.14,1.14,0,0,1,85,47a1.18,1.18,0,0,1-.08.43.85.85,0,0,1-.21.31.9.9,0,0,1-.34.2A1.16,1.16,0,0,1,84,48a1.5,1.5,0,0,1-.37-.05.9.9,0,0,1-.26-.13.49.49,0,0,0-.11.14.53.53,0,0,0,0,.19.24.24,0,0,0,.12.2.5.5,0,0,0,.29.08l.76,0a2.2,2.2,0,0,1,.37.06.71.71,0,0,1,.29.14.63.63,0,0,1,.21.22.66.66,0,0,1,.07.32.84.84,0,0,1-.07.35.78.78,0,0,1-.24.3,1.13,1.13,0,0,1-.41.21,2.13,2.13,0,0,1-.6.08,2.29,2.29,0,0,1-.56-.06,1.21,1.21,0,0,1-.38-.16.65.65,0,0,1-.28-.53,1.25,1.25,0,0,1,0-.21,1,1,0,0,1,.08-.18,1.09,1.09,0,0,1,.13-.17l.17-.17a.63.63,0,0,1-.23-.19.45.45,0,0,1-.07-.25.74.74,0,0,1,.07-.34,1.27,1.27,0,0,1,.18-.27.89.89,0,0,1-.14-.25,1.16,1.16,0,0,1,0-.34,1.18,1.18,0,0,1,.08-.43.87.87,0,0,1,.22-.32,1.08,1.08,0,0,1,.33-.2A1.42,1.42,0,0,1,84,46l.23,0,.2,0h.83a.1.1,0,0,1,.08,0A.37.37,0,0,1,85.33,46.17Zm-.4,3a.35.35,0,0,0-.17-.32.92.92,0,0,0-.44-.12l-.82,0a1.06,1.06,0,0,0-.19.16L83.2,49a.47.47,0,0,0-.06.15.61.61,0,0,0,0,.14.37.37,0,0,0,.23.35,1.42,1.42,0,0,0,.65.12,1.31,1.31,0,0,0,.43-.06.87.87,0,0,0,.29-.13.53.53,0,0,0,.15-.19A.48.48,0,0,0,84.93,49.18ZM84.63,47a.7.7,0,0,0-1-.63.8.8,0,0,0-.21.15.84.84,0,0,0-.12.23,1.1,1.1,0,0,0,0,.27.62.62,0,0,0,.67.67.73.73,0,0,0,.3-.06.62.62,0,0,0,.2-.15.48.48,0,0,0,.12-.22A.75.75,0,0,0,84.63,47Z" transform="translate(-0.92 -0.61)"/><path class="cls-1" d="M86.49,45.13a.3.3,0,0,1,0,.2.27.27,0,0,1-.2.05.26.26,0,0,1-.19-.05.3.3,0,0,1,0-.2.25.25,0,0,1,.06-.2s.09,0,.19,0a.26.26,0,0,1,.19,0A.3.3,0,0,1,86.49,45.13Zm-.06,3.77a0,0,0,0,1,0,0l0,0H86.1l0,0a0,0,0,0,1,0,0V46.08a.06.06,0,0,1,0,0l0,0,.06,0h.18l0,0,0,0a.06.06,0,0,1,0,0Z" transform="translate(-0.92 -0.61)"/><path class="cls-1" d="M88.83,48.73s0,.08,0,.11l0,.06-.07,0-.1,0-.13,0h-.12A1,1,0,0,1,88,49a.53.53,0,0,1-.24-.17.65.65,0,0,1-.13-.29,1.58,1.58,0,0,1,0-.41V46.33h-.42a.07.07,0,0,1-.06,0,.21.21,0,0,1,0-.12.17.17,0,0,1,0-.07s0,0,0-.05l0,0h.46v-.72l0,0h.3l0,0V46h.81l0,0s0,0,0,.05,0,0,0,.07a.21.21,0,0,1,0,.12.1.1,0,0,1-.07,0H88V48a1,1,0,0,0,.09.49.35.35,0,0,0,.33.17l.14,0,.1,0,.08,0h.09l0,0s0,0,0,0A.15.15,0,0,1,88.83,48.73Z" transform="translate(-0.92 -0.61)"/><path class="cls-1" d="M91.54,48.9s0,0,0,.05l0,0h-.18l-.06,0s0,0,0-.05v-.32a1.38,1.38,0,0,1-.42.32,1,1,0,0,1-.47.11,1.62,1.62,0,0,1-.4,0,.87.87,0,0,1-.3-.17.83.83,0,0,1-.19-.26.93.93,0,0,1-.06-.34.78.78,0,0,1,.1-.41.82.82,0,0,1,.27-.29,1.54,1.54,0,0,1,.43-.17,2.32,2.32,0,0,1,.55-.06h.45V47a1,1,0,0,0,0-.32.46.46,0,0,0-.12-.23.55.55,0,0,0-.22-.14,1,1,0,0,0-.32,0,1.16,1.16,0,0,0-.34,0,1.28,1.28,0,0,0-.26.1,1.09,1.09,0,0,0-.19.1l-.1,0h0s0,0,0,0a.05.05,0,0,1,0,0v-.06a.34.34,0,0,1,0-.11.2.2,0,0,1,0-.08l.14-.09.23-.1L90.2,46a1.53,1.53,0,0,1,.3,0A1.7,1.7,0,0,1,91,46a.92.92,0,0,1,.32.2.88.88,0,0,1,.18.33,1.81,1.81,0,0,1,.05.43Zm-.37-1.33h-.51a1.64,1.64,0,0,0-.4,0,.79.79,0,0,0-.28.12.46.46,0,0,0-.16.18.54.54,0,0,0-.06.25.5.5,0,0,0,.16.39.57.57,0,0,0,.43.14.72.72,0,0,0,.41-.11,1.56,1.56,0,0,0,.41-.35Z" transform="translate(-0.92 -0.61)"/><path class="cls-1" d="M92.94,48.9a0,0,0,0,1,0,0l0,0h-.3l0,0a0,0,0,0,1,0,0V44.7a.08.08,0,0,1,0,0l0,0,.06,0h.18l.06,0,0,0a.08.08,0,0,1,0,0Z" transform="translate(-0.92 -0.61)"/><path class="cls-1" d="M16.24,54.42a2.18,2.18,0,0,1-.08.65,1.44,1.44,0,0,1-.23.5,1,1,0,0,1-.38.31A1.24,1.24,0,0,1,15,56a.93.93,0,0,1-.24,0,.6.6,0,0,1-.21-.08,1.28,1.28,0,0,1-.21-.14l-.22-.2V57a.06.06,0,0,1,0,0s0,0,0,0l0,0h-.18a.08.08,0,0,1-.06,0s0,0,0,0a.06.06,0,0,1,0,0V53.06s0,0,0,0,0,0,0,0h.26s0,0,0,0,0,0,0,0v.4l.25-.23a1.67,1.67,0,0,1,.24-.16.82.82,0,0,1,.24-.1,1.09,1.09,0,0,1,.26,0,1,1,0,0,1,.52.12.86.86,0,0,1,.36.32,1.33,1.33,0,0,1,.19.47A2.62,2.62,0,0,1,16.24,54.42Zm-.39.06a3.19,3.19,0,0,0,0-.45,1.37,1.37,0,0,0-.13-.39.73.73,0,0,0-.24-.28.62.62,0,0,0-.37-.1.8.8,0,0,0-.44.13,1.77,1.77,0,0,0-.23.19,2.44,2.44,0,0,0-.26.28v1.23a2.51,2.51,0,0,0,.45.43.76.76,0,0,0,.45.15.66.66,0,0,0,.37-.1.85.85,0,0,0,.25-.28,1.42,1.42,0,0,0,.14-.38A2,2,0,0,0,15.85,54.48Z" transform="translate(-0.92 -0.61)"/><path class="cls-1" d="M19.07,55.87a.06.06,0,0,1,0,.05L19,56h-.18l-.06,0a.06.06,0,0,1,0-.05v-.31a1.56,1.56,0,0,1-.42.32,1.12,1.12,0,0,1-.47.11,1.25,1.25,0,0,1-.4-.06.86.86,0,0,1-.3-.16.83.83,0,0,1-.19-.26,1,1,0,0,1-.06-.35.81.81,0,0,1,.37-.69,1.29,1.29,0,0,1,.43-.17,2.32,2.32,0,0,1,.55-.06h.45V54a1,1,0,0,0,0-.32.5.5,0,0,0-.12-.24.69.69,0,0,0-.22-.14,1,1,0,0,0-.32,0,1.18,1.18,0,0,0-.34,0l-.26.1-.19.11-.1,0h0l0,0a.05.05,0,0,1,0,0v-.07a.31.31,0,0,1,0-.1s0-.05,0-.08l.14-.09.23-.1.28-.07.3,0a1.41,1.41,0,0,1,.49.07.8.8,0,0,1,.32.2.92.92,0,0,1,.18.32,2,2,0,0,1,.05.44Zm-.37-1.33h-.51a1.62,1.62,0,0,0-.4.05.78.78,0,0,0-.28.11.56.56,0,0,0-.16.19.51.51,0,0,0-.06.25.5.5,0,0,0,.16.39.62.62,0,0,0,.43.14.81.81,0,0,0,.41-.11,1.78,1.78,0,0,0,.41-.35Z" transform="translate(-0.92 -0.61)"/><path class="cls-1" d="M21.46,55.71s0,.07,0,.1a.16.16,0,0,1,0,.07l-.07,0-.1,0-.13,0H21a1.25,1.25,0,0,1-.36,0,.61.61,0,0,1-.24-.17.65.65,0,0,1-.13-.29,1.64,1.64,0,0,1-.05-.41V53.3h-.42a.09.09,0,0,1-.07,0,.37.37,0,0,1,0-.12.15.15,0,0,1,0-.07.43.43,0,0,1,0,0l0,0h.46V52.3s0,0,0,0l0,0,.06,0h.18l.06,0,0,0a.08.08,0,0,1,0,0V53h.82l0,0a.08.08,0,0,1,0,0s0,0,0,.07a.21.21,0,0,1,0,.12.09.09,0,0,1-.07,0h-.78V55a.94.94,0,0,0,.1.49.35.35,0,0,0,.33.17l.14,0,.1,0,.08,0h.09l0,0s0,0,0,0S21.46,55.68,21.46,55.71Z" transform="translate(-0.92 -0.61)"/><path class="cls-1" d="M24.48,55.87s0,0,0,0l0,0-.05,0H24.2l-.05,0,0,0s0,0,0,0V54.2a1.66,1.66,0,0,0,0-.42A.91.91,0,0,0,24,53.5a.6.6,0,0,0-.21-.18.54.54,0,0,0-.29-.07.72.72,0,0,0-.43.15,2.39,2.39,0,0,0-.45.45v2s0,0,0,0l0,0-.06,0h-.18l-.06,0,0,0s0,0,0,0V51.68s0,0,0,0l0,0,.06,0h.18l.06,0,0,0s0,0,0,0v1.76a1.57,1.57,0,0,1,.46-.38,1,1,0,0,1,.46-.12A1,1,0,0,1,24,53a.88.88,0,0,1,.31.26,1.05,1.05,0,0,1,.17.37,2.44,2.44,0,0,1,.05.51Z" transform="translate(-0.92 -0.61)"/><path class="cls-1" d="M28,54.44a2.45,2.45,0,0,1-.08.62,1.64,1.64,0,0,1-.26.49,1.09,1.09,0,0,1-.44.32,1.4,1.4,0,0,1-.6.12,1.61,1.61,0,0,1-.57-.1,1.08,1.08,0,0,1-.42-.3,1.37,1.37,0,0,1-.25-.48,2.33,2.33,0,0,1-.08-.62,2,2,0,0,1,.09-.62,1.34,1.34,0,0,1,.25-.49,1.13,1.13,0,0,1,.43-.32,1.48,1.48,0,0,1,.61-.12,1.5,1.5,0,0,1,.58.1,1.12,1.12,0,0,1,.41.3,1.41,1.41,0,0,1,.25.47A2.41,2.41,0,0,1,28,54.44Zm-.39,0a2.31,2.31,0,0,0-.05-.46,1.16,1.16,0,0,0-.15-.38.84.84,0,0,0-.29-.27,1.08,1.08,0,0,0-.46-.1,1,1,0,0,0-.44.09.94.94,0,0,0-.3.26,1.05,1.05,0,0,0-.17.37,1.84,1.84,0,0,0-.06.47,2.34,2.34,0,0,0,0,.47,1.16,1.16,0,0,0,.15.38.76.76,0,0,0,.3.26.88.88,0,0,0,.45.1,1,1,0,0,0,.44-.09.81.81,0,0,0,.3-.25.94.94,0,0,0,.17-.38A1.73,1.73,0,0,0,27.61,54.47Z" transform="translate(-0.92 -0.61)"/><path class="cls-1" d="M29.21,55.87s0,0,0,0l0,0-.06,0h-.18l-.06,0,0,0s0,0,0,0V51.68s0,0,0,0l0,0,.06,0h.18l.06,0,0,0s0,0,0,0Z" transform="translate(-0.92 -0.61)"/><path class="cls-1" d="M32.74,54.44a2.06,2.06,0,0,1-.09.62,1.44,1.44,0,0,1-.26.49,1.13,1.13,0,0,1-.43.32,1.4,1.4,0,0,1-.6.12,1.67,1.67,0,0,1-.58-.1,1,1,0,0,1-.41-.3,1.1,1.1,0,0,1-.25-.48,2,2,0,0,1-.09-.62,2,2,0,0,1,.09-.62,1.36,1.36,0,0,1,.26-.49,1.06,1.06,0,0,1,.43-.32,1.4,1.4,0,0,1,.6-.12A1.47,1.47,0,0,1,32,53a1,1,0,0,1,.41.3,1.25,1.25,0,0,1,.25.47A2,2,0,0,1,32.74,54.44Zm-.4,0a2.32,2.32,0,0,0,0-.46,1.18,1.18,0,0,0-.16-.38.84.84,0,0,0-.29-.27,1,1,0,0,0-.46-.1.94.94,0,0,0-.43.09.88.88,0,0,0-.31.26,1.26,1.26,0,0,0-.17.37,1.83,1.83,0,0,0-.05.47,2.35,2.35,0,0,0,0,.47,1.18,1.18,0,0,0,.16.38.73.73,0,0,0,.29.26.92.92,0,0,0,.46.1.94.94,0,0,0,.43-.09.76.76,0,0,0,.31-.25,1.33,1.33,0,0,0,.17-.38A1.74,1.74,0,0,0,32.34,54.47Z" transform="translate(-0.92 -0.61)"/><path class="cls-1" d="M35.83,53.15a.17.17,0,0,1,0,.12.09.09,0,0,1-.07,0h-.45a.67.67,0,0,1,.18.3.88.88,0,0,1,.06.33,1.08,1.08,0,0,1-.08.42.8.8,0,0,1-.22.32.91.91,0,0,1-.33.2,1.43,1.43,0,0,1-.43.07,1.13,1.13,0,0,1-.36-.06.68.68,0,0,1-.27-.13.56.56,0,0,0-.1.15.34.34,0,0,0,0,.18.24.24,0,0,0,.11.2.49.49,0,0,0,.3.09l.76,0a2,2,0,0,1,.36.05,1,1,0,0,1,.3.14.63.63,0,0,1,.2.23.62.62,0,0,1,.08.31.86.86,0,0,1-.08.36.83.83,0,0,1-.23.3,1.22,1.22,0,0,1-.41.21,2.15,2.15,0,0,1-.6.07,2.9,2.9,0,0,1-.56,0,1.36,1.36,0,0,1-.38-.16.71.71,0,0,1-.22-.24.73.73,0,0,1-.06-.3,1.23,1.23,0,0,1,0-.2.64.64,0,0,1,.08-.19.91.91,0,0,1,.13-.16c0-.06.11-.11.17-.17a.57.57,0,0,1-.23-.2.43.43,0,0,1-.08-.24.74.74,0,0,1,.08-.34,1.27,1.27,0,0,1,.18-.27.82.82,0,0,1-.14-.26,1,1,0,0,1,0-.33,1,1,0,0,1,.08-.43.89.89,0,0,1,.21-.32,1.05,1.05,0,0,1,.34-.2,1.12,1.12,0,0,1,.42-.07h.23l.2,0h.83a.07.07,0,0,1,.07,0A.21.21,0,0,1,35.83,53.15Zm-.4,3a.36.36,0,0,0-.17-.31.93.93,0,0,0-.45-.12l-.81,0a1.72,1.72,0,0,0-.19.17.72.72,0,0,0-.11.15.53.53,0,0,0-.06.14.78.78,0,0,0,0,.14.37.37,0,0,0,.24.35,1.84,1.84,0,0,0,1.08.07,1,1,0,0,0,.29-.13.55.55,0,0,0,.15-.2A.59.59,0,0,0,35.43,56.15Zm-.3-2.22a.72.72,0,0,0-.17-.5.68.68,0,0,0-.5-.18.65.65,0,0,0-.29.06.57.57,0,0,0-.21.15.71.71,0,0,0-.12.23.77.77,0,0,0,0,.27.67.67,0,0,0,.18.49.64.64,0,0,0,.49.18.65.65,0,0,0,.29-.06.57.57,0,0,0,.21-.15.94.94,0,0,0,.12-.22A.8.8,0,0,0,35.13,53.93Z" transform="translate(-0.92 -0.61)"/><path class="cls-1" d="M37.65,55.94,37.26,57s0,0-.06.06a.37.37,0,0,1-.16,0h-.1s0,0,0,0,0,0,0,0a.14.14,0,0,1,0-.06l.39-1,0,0s0,0,0,0l-1-2.75a.2.2,0,0,1,0-.07s0,0,0,0l.06,0h.28l0,0s0,0,0,0l.88,2.46h0l.87-2.46a.15.15,0,0,1,0-.06l.07,0h.21l.05,0a0,0,0,0,1,0,0,.2.2,0,0,1,0,.07Z" transform="translate(-0.92 -0.61)"/><path class="cls-1" d="M41.24,52.11a.2.2,0,0,1-.25.25.31.31,0,0,1-.19,0,.3.3,0,0,1,0-.2.25.25,0,0,1,.06-.2.24.24,0,0,1,.19-.06.31.31,0,0,1,.19,0A.36.36,0,0,1,41.24,52.11Zm-.06,3.76s0,0,0,0,0,0,0,0l0,0h-.18l-.06,0,0,0s0,0,0,0V53.06s0,0,0,0l0,0h.29s0,0,0,0,0,0,0,0Z" transform="translate(-0.92 -0.61)"/><path class="cls-1" d="M44.51,55.87s0,0,0,0l0,0a.11.11,0,0,1-.06,0h-.18l0,0s0,0,0,0,0,0,0,0V54.2a2.3,2.3,0,0,0,0-.42A.73.73,0,0,0,44,53.5a.49.49,0,0,0-.2-.18.58.58,0,0,0-.3-.07.77.77,0,0,0-.43.15,3.17,3.17,0,0,0-.45.45v2s0,0,0,0,0,0,0,0l0,0h-.18a.08.08,0,0,1-.06,0s0,0,0,0,0,0,0,0V53.06s0,0,0,0,0,0,0,0h.28l0,0v.43a1.65,1.65,0,0,1,.48-.39,1,1,0,0,1,.46-.12A1.09,1.09,0,0,1,44,53a.88.88,0,0,1,.31.26,1.05,1.05,0,0,1,.17.37,2.44,2.44,0,0,1,0,.51Z" transform="translate(-0.92 -0.61)"/><path class="cls-1" d="M49.68,55.39v.06a.43.43,0,0,1,0,0l0,0,0,.05-.13.1-.25.13a2.27,2.27,0,0,1-.34.11,2,2,0,0,1-.44,0,1.74,1.74,0,0,1-.69-.14,1.3,1.3,0,0,1-.52-.38,1.72,1.72,0,0,1-.33-.63,2.84,2.84,0,0,1-.12-.86,3,3,0,0,1,.12-.88,2.07,2.07,0,0,1,.35-.66,1.72,1.72,0,0,1,.55-.42,1.59,1.59,0,0,1,.7-.14,2.07,2.07,0,0,1,.35,0,1.58,1.58,0,0,1,.31.09,1.23,1.23,0,0,1,.26.12.73.73,0,0,1,.15.11l.06.06v0a.13.13,0,0,1,0,.06v.14a.08.08,0,0,1,0,0,.05.05,0,0,1,0,0h0a.22.22,0,0,1-.12-.06l-.21-.14a1.61,1.61,0,0,0-.32-.14,1.16,1.16,0,0,0-.44-.07,1.11,1.11,0,0,0-.52.12,1,1,0,0,0-.41.33,1.7,1.7,0,0,0-.26.54,2.85,2.85,0,0,0,0,1.46,1.53,1.53,0,0,0,.25.53,1.07,1.07,0,0,0,.41.32,1.2,1.2,0,0,0,.55.12,1.45,1.45,0,0,0,.44-.07,1.61,1.61,0,0,0,.32-.14l.22-.14c.06,0,.1-.07.13-.07h0l0,0a.43.43,0,0,1,0,0Z" transform="translate(-0.92 -0.61)"/><path class="cls-1" d="M53.32,55.81a.31.31,0,0,1,0,.08l0,0-.07,0H53l0,0a.05.05,0,0,1,0,0l-.39-1.07H50.77l-.37,1.07a.08.08,0,0,1,0,0s0,0,0,0l-.06,0h-.21a.08.08,0,0,1-.06,0s0,0,0,0a.23.23,0,0,1,0-.07L51.42,52l0,0,0,0,.07,0h.2l.07,0,0,0s0,0,0,0Zm-1.67-3.5h0l-.76,2.17h1.54Z" transform="translate(-0.92 -0.61)"/><path class="cls-1" d="M57,55.75a.3.3,0,0,1,0,.1l0,.06-.06,0h-.14l-.12,0-.1,0a.53.53,0,0,1-.09-.11,1.42,1.42,0,0,1-.11-.16l-1.42-2.52-.21-.38-.21-.38h0v3.54s0,0,0,0,0,0,0,0a.08.08,0,0,1-.06,0h-.18l-.06,0,0,0s0,0,0,0V52.1a.18.18,0,0,1,.06-.15.19.19,0,0,1,.12,0h.28l.09,0a.6.6,0,0,1,.08.08l.08.14,1.09,1.93.19.35a2.68,2.68,0,0,1,.18.33l.18.31c.05.11.11.21.17.32h0V52a0,0,0,0,1,0,0s0,0,0,0l0,0h.18l.06,0,0,0v3.8Z" transform="translate(-0.92 -0.61)"/><path class="cls-1" d="M60,55.46v.06a.13.13,0,0,1,0,.06s0,0,0,0,0,0-.05.06a.53.53,0,0,1-.13.1.91.91,0,0,1-.22.11l-.25.08a1.36,1.36,0,0,1-.29,0,1.19,1.19,0,0,1-.51-.1.9.9,0,0,1-.38-.29,1.29,1.29,0,0,1-.23-.47,2.08,2.08,0,0,1-.08-.64,2.45,2.45,0,0,1,.09-.71,1.58,1.58,0,0,1,.27-.48,1.18,1.18,0,0,1,.4-.27,1.37,1.37,0,0,1,.49-.09,1.12,1.12,0,0,1,.27,0,.84.84,0,0,1,.24.07l.19.1a.46.46,0,0,1,.12.09l.06.06,0,.05a.43.43,0,0,1,0,0v.07a.23.23,0,0,1,0,.13.05.05,0,0,1,0,0,.21.21,0,0,1-.11,0l-.16-.13-.25-.12a.81.81,0,0,0-.33-.06.73.73,0,0,0-.63.32,1.57,1.57,0,0,0-.22.9,1.93,1.93,0,0,0,.06.51,1.06,1.06,0,0,0,.17.37.83.83,0,0,0,.27.23,1,1,0,0,0,.36.07.88.88,0,0,0,.33-.06,1.46,1.46,0,0,0,.25-.13l.17-.13a.24.24,0,0,1,.11-.06h0l0,0a.14.14,0,0,1,0,.06Z" transform="translate(-0.92 -0.61)"/><path class="cls-1" d="M63.07,54.32a.16.16,0,0,1-.06.15.21.21,0,0,1-.12.05H61A2.26,2.26,0,0,0,61,55a1,1,0,0,0,.17.36.72.72,0,0,0,.31.23,1.09,1.09,0,0,0,.47.09,1.87,1.87,0,0,0,.35,0l.27-.07.18-.08.11,0h0l0,0s0,0,0,.05a.22.22,0,0,1,0,.08.09.09,0,0,1,0,0v0s0,0,0,0,0,0,0,0l-.1.05a1.17,1.17,0,0,1-.21.08l-.3.07a2.25,2.25,0,0,1-.38,0,1.54,1.54,0,0,1-.58-.1,1,1,0,0,1-.42-.29,1.33,1.33,0,0,1-.26-.47,2.19,2.19,0,0,1-.09-.66,2.11,2.11,0,0,1,.09-.64,1.25,1.25,0,0,1,.27-.48,1.14,1.14,0,0,1,.41-.31,1.53,1.53,0,0,1,.54-.1,1.27,1.27,0,0,1,.54.11,1,1,0,0,1,.37.28,1.38,1.38,0,0,1,.21.42,2,2,0,0,1,.07.5Zm-.39-.11a1,1,0,0,0-.2-.7.78.78,0,0,0-.63-.25.75.75,0,0,0-.37.08.71.71,0,0,0-.27.21.9.9,0,0,0-.17.3,1.53,1.53,0,0,0-.07.36Z" transform="translate(-0.92 -0.61)"/><path class="cls-1" d="M65.48,53.2v.08a.43.43,0,0,1,0,0s0,0,0,0h-.09l-.09,0-.11,0H65a.51.51,0,0,0-.17,0,.77.77,0,0,0-.17.12,1,1,0,0,0-.18.21,2.49,2.49,0,0,0-.22.32v1.9s0,0,0,0,0,0,0,0l0,0H64l-.05,0s0,0,0,0,0,0,0,0V53.06s0,0,0,0,0,0,0,0h.28s0,0,0,0,0,0,0,0v.44a2.67,2.67,0,0,1,.23-.29,1.45,1.45,0,0,1,.19-.17.91.91,0,0,1,.18-.08l.19,0h.2l.11,0,.07,0,0,0,0,0v.12Z" transform="translate(-0.92 -0.61)"/><path class="cls-2" d="M62.33,10.2A36.53,36.53,0,0,0,39.17.61V2.85a34.28,34.28,0,0,1,21.58,8.93l-1.81,1.81h5.17V8.41Z" transform="translate(-0.92 -0.61)"/><path class="cls-3" d="M36,.61A36.59,36.59,0,0,0,12.8,10.2l1.58,1.58A34.33,34.33,0,0,1,36,2.85Z" transform="translate(-0.92 -0.61)"/><path class="cls-4" d="M10.53,12.48A36.56,36.56,0,0,0,.92,35.65H3.16a34.25,34.25,0,0,1,9-21.58Z" transform="translate(-0.92 -0.61)"/><path class="cls-5" d="M.92,38.86A36.58,36.58,0,0,0,10.51,62l1.58-1.58A34.34,34.34,0,0,1,3.16,38.86Z" transform="translate(-0.92 -0.61)"/><path class="cls-6" d="M12.79,64.29A36.58,36.58,0,0,0,36,73.88V71.66a34.25,34.25,0,0,1-21.58-8.95Z" transform="translate(-0.92 -0.61)"/><path class="cls-7" d="M39.17,71.66V73.9a36.63,36.63,0,0,0,23.17-9.61l-1.58-1.57A34.32,34.32,0,0,1,39.17,71.66Z" transform="translate(-0.92 -0.61)"/></svg>