<svg id="Layer_1_copy" data-name="Layer 1 copy" xmlns="http://www.w3.org/2000/svg" viewBox="0 0 92.35 73.29"><defs><style>.cls-1{fill:#00529b;}.cls-2{fill:#03a3da;}.cls-3{fill:#70ab43;}.cls-4{fill:#e66725;}.cls-5{fill:#c71d65;}.cls-6{fill:#e05e87;}.cls-7{fill:#8d4a97;}</style></defs><path class="cls-1" d="M26,47a1.17,1.17,0,0,1,.09.43.33.33,0,0,1-.12.24.71.71,0,0,1-.34.12l-.6,0-.57,0a1.55,1.55,0,0,1-.34-.08.44.44,0,0,1-.18-.14,1,1,0,0,1-.11-.2l-2.14-5.94H12l-2.05,5.9a.7.7,0,0,1-.11.21.47.47,0,0,1-.19.14,1.08,1.08,0,0,1-.33.1,4.16,4.16,0,0,1-.54,0,5.16,5.16,0,0,1-.61,0,.72.72,0,0,1-.35-.12.35.35,0,0,1-.12-.24A1.13,1.13,0,0,1,7.75,47l7.8-21.19a.73.73,0,0,1,.16-.23.72.72,0,0,1,.26-.14,2,2,0,0,1,.4-.08,4.11,4.11,0,0,1,.53,0,4.39,4.39,0,0,1,.54,0,1.91,1.91,0,0,1,.39.08.59.59,0,0,1,.26.14.91.91,0,0,1,.15.23ZM16.79,27.73h0l-4.2,12H21.1Z" transform="translate(-1.06 -0.7)"/><path class="cls-1" d="M32.18,47.41a.45.45,0,0,1,0,.19.39.39,0,0,1-.17.13,1.12,1.12,0,0,1-.32.09,3.49,3.49,0,0,1-.51,0,3.63,3.63,0,0,1-.5,0,1.1,1.1,0,0,1-.33-.09.39.39,0,0,1-.17-.13.45.45,0,0,1-.05-.19V25.82a.33.33,0,0,1,.06-.19.41.41,0,0,1,.19-.14,1.77,1.77,0,0,1,.33-.08,2.17,2.17,0,0,1,.47,0,2.39,2.39,0,0,1,.51,0,1.65,1.65,0,0,1,.32.08.4.4,0,0,1,.17.14.41.41,0,0,1,0,.19Z" transform="translate(-1.06 -0.7)"/><path class="cls-1" d="M53.27,44.72a3.28,3.28,0,0,1,0,.34,1.78,1.78,0,0,1,0,.28,1.47,1.47,0,0,1-.1.22,1.36,1.36,0,0,1-.22.27,5.46,5.46,0,0,1-.71.53,9.22,9.22,0,0,1-1.39.74,12.76,12.76,0,0,1-1.92.62,10.44,10.44,0,0,1-2.39.25,9.55,9.55,0,0,1-3.81-.73,7.86,7.86,0,0,1-2.9-2.14,9.94,9.94,0,0,1-1.84-3.48,15.83,15.83,0,0,1-.64-4.71A16,16,0,0,1,38,32a10.87,10.87,0,0,1,1.94-3.67,8.35,8.35,0,0,1,3-2.31,9.19,9.19,0,0,1,3.86-.8,9.53,9.53,0,0,1,1.94.19,13.13,13.13,0,0,1,1.73.48,9.36,9.36,0,0,1,1.42.67,5.1,5.1,0,0,1,.86.62,2.05,2.05,0,0,1,.29.33.92.92,0,0,1,.09.23,2.27,2.27,0,0,1,.06.3c0,.11,0,.23,0,.37s0,.3,0,.42a1.26,1.26,0,0,1-.09.31.78.78,0,0,1-.14.2.37.37,0,0,1-.21.06,1.24,1.24,0,0,1-.68-.35,12.41,12.41,0,0,0-1.15-.78,8.71,8.71,0,0,0-1.75-.78,7.51,7.51,0,0,0-2.46-.36,6.54,6.54,0,0,0-2.88.63,6.2,6.2,0,0,0-2.24,1.85,9.09,9.09,0,0,0-1.47,3,14.73,14.73,0,0,0-.52,4.12A14.71,14.71,0,0,0,40,40.71a8.51,8.51,0,0,0,1.39,2.9,5.91,5.91,0,0,0,2.26,1.8,7.22,7.22,0,0,0,3,.62,7.74,7.74,0,0,0,2.43-.35,9.64,9.64,0,0,0,1.78-.79,12.65,12.65,0,0,0,1.22-.78,1.37,1.37,0,0,1,.73-.35.31.31,0,0,1,.17,0,.3.3,0,0,1,.11.15,1.61,1.61,0,0,1,.07.31,3,3,0,0,1,0,.46" transform="translate(-1.06 -0.7)"/><path class="cls-1" d="M73.37,47a1.23,1.23,0,0,1,.1.43.33.33,0,0,1-.12.24.72.72,0,0,1-.35.12l-.59,0-.58,0a1.44,1.44,0,0,1-.33-.08.41.41,0,0,1-.19-.14,1.8,1.8,0,0,1-.11-.2l-2.13-5.94H59.29l-2,5.9a.51.51,0,0,1-.1.21.55.55,0,0,1-.19.14,1.06,1.06,0,0,1-.34.1,4,4,0,0,1-.54,0,5,5,0,0,1-.6,0,.68.68,0,0,1-.35-.12.29.29,0,0,1-.12-.24,1,1,0,0,1,.09-.42l7.8-21.19a.57.57,0,0,1,.15-.23.69.69,0,0,1,.27-.14,1.88,1.88,0,0,1,.4-.08,4.05,4.05,0,0,1,.52,0,4.16,4.16,0,0,1,.54,0,1.88,1.88,0,0,1,.4.08.65.65,0,0,1,.26.14.68.68,0,0,1,.14.23ZM64.13,27.73h0l-4.2,12h8.52Z" transform="translate(-1.06 -0.7)"/><path class="cls-1" d="M93.41,46.7a1.15,1.15,0,0,1-.1.52.91.91,0,0,1-.24.33.77.77,0,0,1-.33.18,1,1,0,0,1-.33.05H92a2.09,2.09,0,0,1-.63-.08,1.76,1.76,0,0,1-.55-.3,3,3,0,0,1-.53-.58,9.58,9.58,0,0,1-.6-.93L81.82,32c-.39-.67-.78-1.37-1.18-2.09s-.77-1.41-1.12-2.09h0c0,.84,0,1.7,0,2.57v17a.33.33,0,0,1-.06.19.35.35,0,0,1-.17.14,1.48,1.48,0,0,1-.32.08,2.35,2.35,0,0,1-.5,0,2.41,2.41,0,0,1-.5,0,1.59,1.59,0,0,1-.33-.08.35.35,0,0,1-.17-.14.32.32,0,0,1,0-.19V26.53a1,1,0,0,1,.32-.86,1.14,1.14,0,0,1,.64-.23h.86a2.66,2.66,0,0,1,.69.07,1.52,1.52,0,0,1,.5.23,2.24,2.24,0,0,1,.44.47,8.17,8.17,0,0,1,.47.76l6,10.66c.38.66.74,1.3,1.07,1.92s.67,1.21,1,1.81.64,1.17,1,1.74l.94,1.74h0c0-1,0-2,0-3v-16a.29.29,0,0,1,0-.18.36.36,0,0,1,.17-.15,1.12,1.12,0,0,1,.32-.09l.51,0,.48,0a1.1,1.1,0,0,1,.33.09.45.45,0,0,1,.18.15.3.3,0,0,1,.06.18Z" transform="translate(-1.06 -0.7)"/><path class="cls-2" d="M62.46,10.29A36.48,36.48,0,0,0,39.31.7V2.93a34.37,34.37,0,0,1,21.58,8.94l-1.81,1.8h5.17V8.5Z" transform="translate(-1.06 -0.7)"/><path class="cls-3" d="M36.1.7a36.54,36.54,0,0,0-23.16,9.59l1.58,1.58A34.28,34.28,0,0,1,36.09,2.94Z" transform="translate(-1.06 -0.7)"/><path class="cls-4" d="M10.67,12.56A36.6,36.6,0,0,0,1.06,35.74H3.3a34.32,34.32,0,0,1,8.94-21.59Z" transform="translate(-1.06 -0.7)"/><path class="cls-5" d="M1.06,39A36.58,36.58,0,0,0,10.65,62.1l1.58-1.57A34.33,34.33,0,0,1,3.3,39Z" transform="translate(-1.06 -0.7)"/><path class="cls-6" d="M12.93,64.38A36.58,36.58,0,0,0,36.08,74V71.75a34.41,34.41,0,0,1-21.59-9Z" transform="translate(-1.06 -0.7)"/><path class="cls-7" d="M39.31,71.75V74a36.64,36.64,0,0,0,23.17-9.6L60.9,62.8A34.38,34.38,0,0,1,39.31,71.75Z" transform="translate(-1.06 -0.7)"/></svg>